<svg width="100" height="100" viewBox="0 0 100 100" fill="none" xmlns="http://www.w3.org/2000/svg">
<g id="Group 22">
<path id="Ellipse 3" d="M100 50C100 77.6142 77.6142 100 50 100C37.5 65.5 0 77.6142 0 50C0 22.3858 22.3858 0 50 0C50 16 100 22.3858 100 50Z" fill="#7B21C1"/>
<path id="Vector" d="M32 70.1077V65.6513H67V70.1077H32ZM36.7153 48.7169C35.7755 47.7142 35.0868 46.5259 34.6493 45.1518C34.2118 43.7777 33.9931 42.3665 33.9931 40.9182C33.9931 37.9101 34.8924 35.3384 36.691 33.203C38.4896 31.0677 40.6852 30 43.2778 30C44.4444 30 45.5625 30.2414 46.6319 30.7242C47.7014 31.2069 48.6574 31.9125 49.5 32.841C50.3426 31.9125 51.2986 31.2069 52.3681 30.7242C53.4375 30.2414 54.5556 30 55.7222 30C58.3472 30 60.559 31.077 62.3576 33.2309C64.1562 35.3848 65.0556 37.9658 65.0556 40.9739C65.0556 42.4223 64.8206 43.8056 64.3507 45.124C63.8808 46.4423 63.2083 47.6214 62.3333 48.6612L52.1736 59.9694C51.8171 60.3779 51.412 60.6843 50.9583 60.8885C50.5046 61.0928 50.0185 61.1949 49.5 61.1949C48.9815 61.1949 48.4954 61.0928 48.0417 60.8885C47.588 60.6843 47.1829 60.3779 46.8264 59.9694L36.7153 48.7169ZM39.4375 45.5974L49.5 56.7385L59.6111 45.5417C60.162 44.9476 60.5671 44.2512 60.8264 43.4528C61.0856 42.6544 61.2153 41.8281 61.2153 40.9739C61.2153 39.1914 60.6887 37.6687 59.6354 36.4061C58.5822 35.1434 57.294 34.5121 55.7708 34.5121C55.0579 34.5121 54.3692 34.67 53.7049 34.9856C53.0405 35.3013 52.4653 35.7562 51.9792 36.3504L50.9097 37.5759C50.7153 37.7987 50.4965 37.9658 50.2535 38.0772C50.0104 38.1887 49.7593 38.2444 49.5 38.2444C49.2407 38.2444 48.9977 38.1887 48.7708 38.0772C48.544 37.9658 48.3333 37.7987 48.1389 37.5759L47.0694 36.3504C46.5509 35.7562 45.9757 35.292 45.3438 34.9578C44.7118 34.6235 44.0231 34.4564 43.2778 34.4564C41.7546 34.4564 40.4664 35.0877 39.4132 36.3504C38.36 37.613 37.8333 39.1356 37.8333 40.9182C37.8333 41.7724 37.963 42.6079 38.2222 43.4249C38.4815 44.242 38.8866 44.9661 39.4375 45.5974Z" fill="white"/>
</g>
</svg>
