<svg width="100" height="100" viewBox="0 0 100 100" fill="none" xmlns="http://www.w3.org/2000/svg">
<g id="Group 20">
<path id="Ellipse 1" d="M100 50C71 66.5 77.6142 100 50 100C22.3858 100 0 77.6142 0 50C0 22.3858 56.5 33 50 0C77.6142 0 100 22.3858 100 50Z" fill="#7B21C1"/>
<path id="Vector" d="M33 70.1077V60.7827L48.3125 37.1191L45.25 32.4065L48.05 30L50.5 33.7601L52.95 30L55.75 32.4065L52.6875 37.1191L68 60.7827V70.1077H33ZM50.5 40.4781L36.5 62.0862V66.0969H41.75L50.5 52.0592L59.25 66.0969H64.5V62.0862L50.5 40.4781ZM46.0375 66.0969H54.9625L50.5 58.9778L46.0375 66.0969Z" fill="white"/>
</g>
</svg>
