<svg width="100" height="88" viewBox="0 0 100 88" fill="none" xmlns="http://www.w3.org/2000/svg">
<g id="Group 21">
<g id="Group 19">
<path id="Ellipse 8" d="M100 50C100 77.6142 77.5 76.5 50 87.5C22.3858 87.5 8.5 73 0 50C18.5 12 22.3858 0 50 0C77.6142 0 82 33.5 100 50Z" fill="#7B21C1"/>
<path id="Vector" d="M64.6345 38.8244L62.1815 36.0151L63.4956 34.46L57.8886 28.0388L56.5307 29.5438L54.0338 26.6844L55.3479 25.1293C56.0196 24.3601 56.8519 23.9838 57.8448 24.0005C58.8377 24.0173 59.67 24.4102 60.3417 25.1794L65.9925 31.6507C66.6642 32.4199 67 33.3647 67 34.4851C67 35.6054 66.6642 36.5502 65.9925 37.3194L64.6345 38.8244ZM43.6083 62.9539C42.9366 63.7231 42.1116 64.1077 41.1333 64.1077C40.155 64.1077 39.33 63.7231 38.6583 62.9539L33.0075 56.4826C32.3358 55.7134 32 54.7686 32 53.6482C32 52.5279 32.3358 51.5831 33.0075 50.8139L34.3217 49.3089L36.8185 52.1684L35.4606 53.6733L41.1114 60.1447L42.4255 58.5895L44.9224 61.449L43.6083 62.9539ZM60.9987 46.0984L63.4956 43.2389L50.2228 28.0388L47.7259 30.8983L60.9987 46.0984ZM48.7334 60.1447L51.2303 57.2351L38.0013 42.0851L35.4606 44.9446L48.7334 60.1447ZM48.4706 48.406L53.2891 42.938L50.4856 39.7274L45.7109 45.2456L48.4706 48.406ZM51.2303 62.9539C50.5586 63.7231 49.7263 64.1077 48.7334 64.1077C47.7405 64.1077 46.9082 63.7231 46.2365 62.9539L33.0075 47.804C32.3358 47.0348 32 46.0816 32 44.9446C32 43.8075 32.3358 42.8543 33.0075 42.0851L35.5044 39.2257C36.1761 38.4565 37.001 38.0719 37.9793 38.0719C38.9577 38.0719 39.7826 38.4565 40.4543 39.2257L43.214 42.3861L48.0325 36.8679L45.2728 33.7577C44.6012 32.9885 44.2653 32.0353 44.2653 30.8983C44.2653 29.7612 44.6012 28.808 45.2728 28.0388L47.7697 25.1794C48.4414 24.4102 49.2664 24.0256 50.2447 24.0256C51.223 24.0256 52.048 24.4102 52.7197 25.1794L65.9925 40.3795C66.6642 41.1487 67 42.0935 67 43.2139C67 44.3342 66.6642 45.279 65.9925 46.0482L63.4956 48.9076C62.8239 49.6768 61.9917 50.0614 60.9987 50.0614C60.0058 50.0614 59.1736 49.6768 58.5019 48.9076L55.786 45.7472L50.9675 51.2654L53.7272 54.4258C54.3988 55.195 54.7347 56.1398 54.7347 57.2602C54.7347 58.3805 54.3988 59.3253 53.7272 60.0945L51.2303 62.9539Z" fill="white"/>
</g>
</g>
</svg>
